<?xml version="1.0" encoding="UTF-8"?>
<svg xmlns="http://www.w3.org/2000/svg" xmlns:xlink="http://www.w3.org/1999/xlink" width="30px" height="30px" viewBox="0 0 30 30" version="1.1">
<g id="surface1">
<path style=" stroke:none;fill-rule:nonzero;fill:rgb(0%,0%,0%);fill-opacity:1;" d="M 15 24.375 C 20.175781 24.375 24.375 20.175781 24.375 15 C 24.375 9.824219 20.175781 5.625 15 5.625 C 9.824219 5.625 5.625 9.824219 5.625 15 C 5.625 20.175781 9.824219 24.375 15 24.375 Z M 15 26.25 C 8.785156 26.25 3.75 21.214844 3.75 15 C 3.75 8.785156 8.785156 3.75 15 3.75 C 21.214844 3.75 26.25 8.785156 26.25 15 C 26.25 21.214844 21.214844 26.25 15 26.25 Z M 15 26.25 "/>
<path style=" stroke:none;fill-rule:nonzero;fill:rgb(0%,0%,0%);fill-opacity:1;" d="M 8.5625 24.15625 L 10.1875 25.09375 L 8.78125 27.53125 C 8.613281 27.824219 8.304688 28.003906 7.96875 28.003906 C 7.632812 28.003906 7.320312 27.824219 7.152344 27.535156 C 6.984375 27.242188 6.988281 26.882812 7.15625 26.59375 Z M 21.4375 24.15625 L 19.8125 25.09375 L 21.21875 27.53125 C 21.386719 27.824219 21.695312 28.003906 22.03125 28.003906 C 22.367188 28.003906 22.679688 27.824219 22.847656 27.535156 C 23.015625 27.242188 23.011719 26.882812 22.84375 26.59375 Z M 15 15 L 19.6875 15 C 20.207031 15 20.625 15.417969 20.625 15.9375 C 20.625 16.457031 20.207031 16.875 19.6875 16.875 L 14.0625 16.875 C 13.542969 16.875 13.125 16.457031 13.125 15.9375 L 13.125 9.375 C 13.125 8.855469 13.542969 8.4375 14.0625 8.4375 C 14.582031 8.4375 15 8.855469 15 9.375 Z M 2.652344 9.148438 C 1.417969 7.289062 1.664062 4.820312 3.242188 3.242188 C 4.820312 1.664062 7.292969 1.417969 9.148438 2.652344 L 7.777344 4.023438 C 6.703125 3.511719 5.417969 3.730469 4.578125 4.574219 C 3.734375 5.414062 3.515625 6.699219 4.027344 7.773438 Z M 27.121094 9.148438 C 28.355469 7.289062 28.105469 4.820312 26.527344 3.242188 C 24.953125 1.667969 22.484375 1.417969 20.625 2.652344 L 21.996094 4.023438 C 23.074219 3.511719 24.355469 3.730469 25.199219 4.574219 C 26.042969 5.414062 26.261719 6.699219 25.746094 7.773438 Z M 27.121094 9.148438 "/>
</g>
</svg>
