<?xml version="1.0" encoding="UTF-8"?>
<svg xmlns="http://www.w3.org/2000/svg" xmlns:xlink="http://www.w3.org/1999/xlink" width="30px" height="30px" viewBox="0 0 30 30" version="1.1">
<g id="surface1">
<path style=" stroke:none;fill-rule:nonzero;fill:rgb(0%,0%,0%);fill-opacity:1;" d="M 3.960938 11.039062 C 1.777344 11.039062 0 12.816406 0 15 C 0 17.183594 1.777344 18.960938 3.960938 18.960938 C 6.148438 18.960938 7.925781 17.183594 7.925781 15 C 7.925781 12.816406 6.148438 11.039062 3.960938 11.039062 Z M 3.960938 11.039062 "/>
<path style=" stroke:none;fill-rule:nonzero;fill:rgb(0%,0%,0%);fill-opacity:1;" d="M 15.195312 11.039062 C 13.007812 11.039062 11.230469 12.816406 11.230469 15 C 11.230469 17.183594 13.007812 18.960938 15.195312 18.960938 C 17.378906 18.960938 19.15625 17.183594 19.15625 15 C 19.15625 12.816406 17.378906 11.039062 15.195312 11.039062 Z M 15.195312 11.039062 "/>
<path style=" stroke:none;fill-rule:nonzero;fill:rgb(0%,0%,0%);fill-opacity:1;" d="M 26.039062 11.039062 C 23.851562 11.039062 22.074219 12.816406 22.074219 15 C 22.074219 17.183594 23.851562 18.960938 26.039062 18.960938 C 28.222656 18.960938 30 17.183594 30 15 C 30 12.816406 28.222656 11.039062 26.039062 11.039062 Z M 26.039062 11.039062 "/>
</g>
</svg>
