<?xml version="1.0" encoding="UTF-8"?>
<svg xmlns="http://www.w3.org/2000/svg" xmlns:xlink="http://www.w3.org/1999/xlink" width="30px" height="30px" viewBox="0 0 30 30" version="1.1">
<g id="surface1">
<path style=" stroke:none;fill-rule:nonzero;fill:rgb(0%,0%,0%);fill-opacity:1;" d="M 8.125 15 L 3.125 15 C 2.78125 15 2.5 15.28125 2.5 15.625 L 2.5 25 L 8.75 25 L 8.75 15.625 C 8.75 15.28125 8.46875 15 8.125 15 Z M 8.125 15 "/>
<path style=" stroke:none;fill-rule:nonzero;fill:rgb(0%,0%,0%);fill-opacity:1;" d="M 17.5 5 L 12.5 5 C 12.15625 5 11.875 5.28125 11.875 5.625 L 11.875 25 L 18.125 25 L 18.125 5.625 C 18.125 5.28125 17.84375 5 17.5 5 Z M 17.5 5 "/>
<path style=" stroke:none;fill-rule:nonzero;fill:rgb(0%,0%,0%);fill-opacity:1;" d="M 26.875 10 L 21.875 10 C 21.53125 10 21.25 10.28125 21.25 10.625 L 21.25 25 L 27.5 25 L 27.5 10.625 C 27.5 10.28125 27.21875 10 26.875 10 Z M 26.875 10 "/>
</g>
</svg>
