<?xml version="1.0" encoding="UTF-8"?>
<svg xmlns="http://www.w3.org/2000/svg" xmlns:xlink="http://www.w3.org/1999/xlink" width="30px" height="30px" viewBox="0 0 30 30" version="1.1">
<g id="surface1">
<path style="fill:none;stroke-width:1.5;stroke-linecap:butt;stroke-linejoin:miter;stroke:rgb(10.980392%,15.294118%,29.803923%);stroke-opacity:1;stroke-miterlimit:4;" d="M 15 12 C 15 13.65625 13.65625 15 12 15 C 10.34375 15 9 13.65625 9 12 C 9 10.34375 10.34375 9 12 9 C 13.65625 9 15 10.34375 15 12 Z M 15 12 " transform="matrix(1.25,0,0,1.25,0,0)"/>
<path style="fill:none;stroke-width:1.5;stroke-linecap:butt;stroke-linejoin:miter;stroke:rgb(10.980392%,15.294118%,29.803923%);stroke-opacity:1;stroke-miterlimit:4;" d="M 13.765625 2.153125 C 13.396875 2 12.93125 2 12 2 C 11.06875 2 10.603125 2 10.234375 2.153125 C 9.74375 2.35625 9.35625 2.74375 9.153125 3.234375 C 9.059375 3.459375 9.021875 3.71875 9.009375 4.096875 C 8.9875 4.65625 8.703125 5.171875 8.21875 5.45 C 7.734375 5.73125 7.146875 5.71875 6.653125 5.459375 C 6.315625 5.28125 6.071875 5.18125 5.834375 5.15 C 5.30625 5.08125 4.775 5.225 4.353125 5.546875 C 4.0375 5.790625 3.80625 6.19375 3.340625 7 C 2.875 7.80625 2.640625 8.209375 2.5875 8.60625 C 2.51875 9.13125 2.6625 9.6625 2.984375 10.084375 C 3.13125 10.275 3.340625 10.4375 3.6625 10.6375 C 4.134375 10.9375 4.4375 11.440625 4.4375 12 C 4.4375 12.559375 4.134375 13.0625 3.6625 13.359375 C 3.340625 13.5625 3.13125 13.725 2.984375 13.915625 C 2.6625 14.3375 2.51875 14.86875 2.5875 15.39375 C 2.640625 15.790625 2.875 16.19375 3.340625 17 C 3.80625 17.80625 4.0375 18.209375 4.353125 18.453125 C 4.775 18.775 5.30625 18.91875 5.834375 18.85 C 6.071875 18.81875 6.315625 18.71875 6.653125 18.540625 C 7.146875 18.28125 7.734375 18.26875 8.21875 18.55 C 8.703125 18.828125 8.9875 19.34375 9.009375 19.903125 C 9.021875 20.28125 9.059375 20.540625 9.153125 20.765625 C 9.35625 21.25625 9.74375 21.64375 10.234375 21.846875 C 10.603125 22 11.06875 22 12 22 C 12.93125 22 13.396875 22 13.765625 21.846875 C 14.25625 21.64375 14.64375 21.25625 14.846875 20.765625 C 14.940625 20.540625 14.978125 20.28125 14.990625 19.903125 C 15.0125 19.34375 15.296875 18.828125 15.78125 18.55 C 16.265625 18.26875 16.853125 18.28125 17.346875 18.540625 C 17.684375 18.71875 17.928125 18.81875 18.165625 18.85 C 18.69375 18.91875 19.225 18.775 19.646875 18.453125 C 19.9625 18.209375 20.19375 17.80625 20.659375 17 C 21.125 16.19375 21.359375 15.790625 21.4125 15.39375 C 21.48125 14.86875 21.3375 14.3375 21.015625 13.915625 C 20.86875 13.725 20.659375 13.5625 20.3375 13.359375 C 19.865625 13.0625 19.5625 12.559375 19.5625 12 C 19.5625 11.440625 19.865625 10.9375 20.3375 10.640625 C 20.659375 10.4375 20.86875 10.275 21.015625 10.084375 C 21.3375 9.6625 21.48125 9.13125 21.4125 8.60625 C 21.359375 8.209375 21.125 7.80625 20.659375 7 C 20.19375 6.19375 19.9625 5.790625 19.646875 5.546875 C 19.225 5.225 18.69375 5.08125 18.165625 5.15 C 17.928125 5.18125 17.684375 5.28125 17.346875 5.459375 C 16.853125 5.71875 16.265625 5.73125 15.78125 5.45 C 15.296875 5.171875 15.0125 4.65625 14.990625 4.096875 C 14.978125 3.71875 14.940625 3.459375 14.846875 3.234375 C 14.64375 2.74375 14.25625 2.35625 13.765625 2.153125 Z M 13.765625 2.153125 " transform="matrix(1.25,0,0,1.25,0,0)"/>
</g>
</svg>
