<?xml version="1.0" encoding="UTF-8"?>
<svg xmlns="http://www.w3.org/2000/svg" xmlns:xlink="http://www.w3.org/1999/xlink" width="30px" height="30px" viewBox="0 0 30 30" version="1.1">
<g id="surface1">
<path style=" stroke:none;fill-rule:nonzero;fill:rgb(0%,0%,0%);fill-opacity:1;" d="M 12.59375 7.910156 L 28.066406 7.910156 C 29.132812 7.910156 30 7.042969 30 5.976562 C 30 4.90625 29.132812 4.042969 28.066406 4.042969 L 12.59375 4.042969 C 11.527344 4.042969 10.660156 4.90625 10.660156 5.976562 C 10.660156 7.042969 11.527344 7.910156 12.59375 7.910156 Z M 12.59375 7.910156 "/>
<path style=" stroke:none;fill-rule:nonzero;fill:rgb(0%,0%,0%);fill-opacity:1;" d="M 28.066406 13.066406 L 12.59375 13.066406 C 11.527344 13.066406 10.660156 13.933594 10.660156 15 C 10.660156 16.066406 11.527344 16.933594 12.59375 16.933594 L 28.066406 16.933594 C 29.132812 16.933594 30 16.066406 30 15 C 30 13.933594 29.132812 13.066406 28.066406 13.066406 Z M 28.066406 13.066406 "/>
<path style=" stroke:none;fill-rule:nonzero;fill:rgb(0%,0%,0%);fill-opacity:1;" d="M 28.066406 22.089844 L 12.59375 22.089844 C 11.527344 22.089844 10.660156 22.957031 10.660156 24.023438 C 10.660156 25.09375 11.527344 25.957031 12.59375 25.957031 L 28.066406 25.957031 C 29.132812 25.957031 30 25.09375 30 24.023438 C 30 22.957031 29.132812 22.089844 28.066406 22.089844 Z M 28.066406 22.089844 "/>
<path style=" stroke:none;fill-rule:nonzero;fill:rgb(0%,0%,0%);fill-opacity:1;" d="M 6.289062 13.460938 L 5 13.273438 L 4.425781 12.105469 C 4.261719 11.777344 3.925781 11.566406 3.558594 11.566406 C 3.191406 11.566406 2.855469 11.777344 2.691406 12.105469 L 2.117188 13.273438 L 0.828125 13.460938 C 0.464844 13.515625 0.160156 13.769531 0.046875 14.121094 C -0.0664062 14.46875 0.0273438 14.851562 0.292969 15.109375 L 1.222656 16.019531 L 1.003906 17.300781 C 0.941406 17.664062 1.089844 18.03125 1.386719 18.246094 C 1.558594 18.371094 1.757812 18.433594 1.957031 18.433594 C 2.109375 18.433594 2.265625 18.394531 2.40625 18.320312 L 3.558594 17.714844 L 4.710938 18.320312 C 4.851562 18.394531 5.007812 18.433594 5.160156 18.433594 C 5.160156 18.433594 5.164062 18.433594 5.164062 18.433594 C 5.695312 18.433594 6.128906 18 6.128906 17.464844 C 6.128906 17.382812 6.121094 17.304688 6.101562 17.230469 L 5.894531 16.019531 L 6.824219 15.109375 C 7.089844 14.851562 7.183594 14.46875 7.070312 14.121094 C 6.957031 13.769531 6.652344 13.515625 6.289062 13.460938 Z M 6.289062 13.460938 "/>
<path style=" stroke:none;fill-rule:nonzero;fill:rgb(0%,0%,0%);fill-opacity:1;" d="M 6.289062 4.4375 L 5 4.25 L 4.425781 3.082031 C 4.261719 2.75 3.925781 2.542969 3.558594 2.542969 C 3.191406 2.542969 2.855469 2.75 2.691406 3.082031 L 2.117188 4.25 L 0.828125 4.4375 C 0.464844 4.488281 0.160156 4.746094 0.046875 5.09375 C -0.0664062 5.445312 0.0273438 5.828125 0.292969 6.085938 L 1.222656 6.992188 L 1.003906 8.277344 C 0.941406 8.640625 1.089844 9.007812 1.386719 9.222656 C 1.558594 9.34375 1.757812 9.40625 1.957031 9.40625 C 2.109375 9.40625 2.265625 9.371094 2.40625 9.296875 L 3.558594 8.691406 L 4.710938 9.296875 C 4.851562 9.371094 5.007812 9.40625 5.160156 9.40625 C 5.160156 9.40625 5.164062 9.40625 5.164062 9.40625 C 5.695312 9.40625 6.128906 8.972656 6.128906 8.441406 C 6.128906 8.359375 6.121094 8.28125 6.101562 8.203125 L 5.894531 6.992188 L 6.824219 6.085938 C 7.089844 5.828125 7.183594 5.445312 7.070312 5.09375 C 6.957031 4.746094 6.652344 4.488281 6.289062 4.4375 Z M 6.289062 4.4375 "/>
<path style=" stroke:none;fill-rule:nonzero;fill:rgb(0%,0%,0%);fill-opacity:1;" d="M 6.289062 22.484375 L 5 22.300781 L 4.425781 21.132812 C 4.261719 20.800781 3.925781 20.59375 3.558594 20.59375 C 3.191406 20.59375 2.855469 20.800781 2.691406 21.132812 L 2.117188 22.300781 L 0.828125 22.484375 C 0.464844 22.539062 0.160156 22.792969 0.046875 23.144531 C -0.0664062 23.496094 0.0273438 23.878906 0.292969 24.136719 L 1.222656 25.042969 L 1.003906 26.328125 C 0.941406 26.6875 1.089844 27.054688 1.386719 27.273438 C 1.558594 27.394531 1.757812 27.457031 1.957031 27.457031 C 2.109375 27.457031 2.265625 27.421875 2.40625 27.347656 L 3.558594 26.738281 L 4.710938 27.347656 C 4.851562 27.421875 5.007812 27.457031 5.160156 27.457031 C 5.160156 27.457031 5.164062 27.457031 5.164062 27.457031 C 5.695312 27.457031 6.128906 27.023438 6.128906 26.488281 C 6.128906 26.410156 6.121094 26.328125 6.101562 26.253906 L 5.894531 25.042969 L 6.824219 24.136719 C 7.089844 23.878906 7.183594 23.496094 7.070312 23.144531 C 6.957031 22.792969 6.652344 22.539062 6.289062 22.484375 Z M 6.289062 22.484375 "/>
</g>
</svg>
