<?xml version="1.0" encoding="UTF-8"?>
<svg xmlns="http://www.w3.org/2000/svg" xmlns:xlink="http://www.w3.org/1999/xlink" width="30px" height="30px" viewBox="0 0 30 30" version="1.1">
<g id="surface1">
<path style=" stroke:none;fill-rule:nonzero;fill:rgb(0%,0%,0%);fill-opacity:1;" d="M 10.601562 15.832031 C 10.269531 15.546875 9.777344 15.5625 9.46875 15.867188 C 9.15625 16.175781 9.136719 16.667969 9.417969 17 L 13.882812 21.464844 L 22.257812 13.089844 C 22.542969 12.761719 22.523438 12.269531 22.214844 11.960938 C 21.90625 11.652344 21.414062 11.632812 21.082031 11.917969 L 13.882812 19.117188 Z M 10.601562 15.832031 "/>
<path style=" stroke:none;fill-rule:nonzero;fill:rgb(0%,0%,0%);fill-opacity:1;" d="M 19.273438 7.5 L 10 7.5 L 10 6.109375 C 10 5.957031 10.125 5.832031 10.273438 5.832031 L 13.332031 5.832031 L 13.332031 5 C 13.332031 4.078125 14.078125 3.332031 15 3.332031 C 15.921875 3.332031 16.667969 4.078125 16.667969 5 L 16.667969 5.832031 L 18.808594 5.832031 C 18.769531 5.558594 18.75 5.277344 18.75 5 C 18.75 4.722656 18.769531 4.441406 18.808594 4.167969 L 18.226562 4.167969 C 17.847656 2.691406 16.519531 1.660156 14.996094 1.660156 C 13.472656 1.660156 12.144531 2.691406 11.765625 4.167969 L 10.273438 4.167969 C 9.203125 4.171875 8.339844 5.039062 8.332031 6.109375 L 8.332031 9.167969 L 20.351562 9.167969 C 19.90625 8.671875 19.542969 8.109375 19.273438 7.5 Z M 19.273438 7.5 "/>
<path style=" stroke:none;fill-rule:nonzero;fill:rgb(0%,0%,0%);fill-opacity:1;" d="M 25 11.25 C 24.722656 11.25 24.441406 11.230469 24.167969 11.191406 L 24.167969 26.667969 L 5.832031 26.667969 L 5.832031 5.832031 L 7.5 5.832031 L 7.5 4.167969 L 5.832031 4.167969 C 5.421875 4.105469 5 4.226562 4.683594 4.496094 C 4.363281 4.765625 4.175781 5.15625 4.167969 5.574219 L 4.167969 26.925781 C 4.171875 27.707031 4.808594 28.339844 5.589844 28.332031 L 24.410156 28.332031 C 25.191406 28.339844 25.828125 27.707031 25.832031 26.925781 L 25.832031 11.191406 C 25.558594 11.230469 25.277344 11.25 25 11.25 Z M 25 11.25 "/>
<path style=" stroke:none;fill-rule:nonzero;fill:rgb(0%,0%,0%);fill-opacity:1;" d="M 29.167969 5 C 29.167969 7.300781 27.300781 9.167969 25 9.167969 C 22.699219 9.167969 20.832031 7.300781 20.832031 5 C 20.832031 2.699219 22.699219 0.832031 25 0.832031 C 27.300781 0.832031 29.167969 2.699219 29.167969 5 Z M 29.167969 5 "/>
</g>
</svg>
